<?xml version="1.0" encoding="UTF-8"?>
<!DOCTYPE svg PUBLIC "-//W3C//DTD SVG 1.1//EN" "http://www.w3.org/Graphics/SVG/1.1/DTD/svg11.dtd">
<svg xmlns="http://www.w3.org/2000/svg" version="1.1" width="500px" height="500px" style="shape-rendering:geometricPrecision; text-rendering:geometricPrecision; image-rendering:optimizeQuality; fill-rule:evenodd; clip-rule:evenodd" xmlns:xlink="http://www.w3.org/1999/xlink">
<g><path style="opacity:1" fill="#000000" d="M -0.5,-0.5 C 166.167,-0.5 332.833,-0.5 499.5,-0.5C 499.5,166.167 499.5,332.833 499.5,499.5C 332.833,499.5 166.167,499.5 -0.5,499.5C -0.5,332.833 -0.5,166.167 -0.5,-0.5 Z"/></g>
<g><path style="opacity:1" fill="#d27a9a" d="M 272.5,175.5 C 273.18,180.107 271.18,183.44 266.5,185.5C 265.511,183.412 265.844,181.412 267.5,179.5C 269.21,178.113 270.877,176.779 272.5,175.5 Z"/></g>
<g><path style="opacity:1" fill="#edbd3d" d="M 255.5,179.5 C 261.499,179.002 263.666,181.669 262,187.5C 261.163,189.844 259.829,191.844 258,193.5C 257.751,190.823 256.751,188.49 255,186.5C 254.297,184.071 254.463,181.738 255.5,179.5 Z"/></g>
<g><path style="opacity:1" fill="#e685a8" d="M 223.5,179.5 C 241.127,178.949 251.127,187.282 253.5,204.5C 252.478,212.256 250.978,219.923 249,227.5C 247.896,236.989 248.562,246.323 251,255.5C 254.553,259.225 253.719,260.725 248.5,260C 230.033,251.866 216.533,238.699 208,220.5C 204.709,211.152 204.709,201.819 208,192.5C 211.258,185.73 216.425,181.397 223.5,179.5 Z"/></g>
<g><path style="opacity:1" fill="#6db8c6" d="M 312.5,185.5 C 327.125,183.625 333.625,189.959 332,204.5C 330.802,208.746 328.302,211.913 324.5,214C 315.747,215.807 307.414,218.807 299.5,223C 297.19,225.83 294.524,227.997 291.5,229.5C 289.898,213.464 294.898,199.964 306.5,189C 308.727,188.059 310.727,186.892 312.5,185.5 Z"/></g>
<g><path style="opacity:1" fill="#437ba4" d="M 283.5,196.5 C 285.888,197.219 287.388,198.885 288,201.5C 288.756,208.119 287.423,208.786 284,203.5C 283.503,201.19 283.337,198.857 283.5,196.5 Z"/></g>
<g><path style="opacity:1" fill="#d47a9b" d="M 341.5,197.5 C 343.989,201.577 342.656,204.577 337.5,206.5C 336.386,205.277 336.219,203.944 337,202.5C 338.634,200.938 340.134,199.271 341.5,197.5 Z"/></g>
<g><path style="opacity:1" fill="#e081a4" d="M 274.5,207.5 C 279.598,206.429 282.764,208.429 284,213.5C 284.667,216.167 284.667,218.833 284,221.5C 281.131,218.732 277.798,216.732 274,215.5C 271.893,212.629 272.059,209.963 274.5,207.5 Z"/></g>
<g><path style="opacity:1" fill="#eebd3d" d="M 331.5,212.5 C 333.857,212.337 336.19,212.503 338.5,213C 341.31,216.757 340.31,219.257 335.5,220.5C 333.5,219.833 331.5,219.167 329.5,218.5C 328.558,218.608 327.725,218.941 327,219.5C 326.333,218.833 326.333,218.167 327,217.5C 328.707,215.963 330.207,214.296 331.5,212.5 Z"/></g>
<g><path style="opacity:1" fill="#447da7" d="M 189.5,213.5 C 192.97,212.875 195.804,213.875 198,216.5C 198.105,220.36 198.938,224.026 200.5,227.5C 196.607,227.827 193.107,226.494 190,223.5C 187.053,220.217 186.887,216.883 189.5,213.5 Z"/></g>
<g><path style="opacity:1" fill="#e0b33a" d="M 173.5,217.5 C 178.045,217.441 181.378,219.441 183.5,223.5C 178.53,224.575 175.196,222.575 173.5,217.5 Z"/></g>
<g><path style="opacity:1" fill="#f5c33f" d="M 265.5,221.5 C 276.131,220.132 281.464,224.798 281.5,235.5C 281.559,241.49 279.726,246.824 276,251.5C 271.946,256.057 267.446,260.057 262.5,263.5C 262.475,258.622 262.308,253.622 262,248.5C 259.912,243.662 258.412,238.662 257.5,233.5C 258.168,228.166 260.835,224.166 265.5,221.5 Z"/></g>
<g><path style="opacity:1" fill="#4985b1" d="M 319.5,225.5 C 328.685,224.377 337.352,225.877 345.5,230C 353.804,239.476 354.637,249.643 348,260.5C 341.09,267.91 332.59,270.743 322.5,269C 311.76,265.599 300.76,264.266 289.5,265C 285.596,266.139 281.929,267.472 278.5,269C 277.291,265.975 277.791,263.141 280,260.5C 288.729,243.592 301.896,231.925 319.5,225.5 Z"/></g>
<g><path style="opacity:1" fill="#6ebac8" d="M 174.5,232.5 C 191.899,230.849 207.233,235.682 220.5,247C 224.333,250.833 228.167,254.667 232,258.5C 232.483,259.448 232.649,260.448 232.5,261.5C 223.884,259.634 215.551,260.468 207.5,264C 200.342,267.412 193.342,271.078 186.5,275C 165.854,279.02 155.354,270.52 155,249.5C 158.904,240.757 165.404,235.091 174.5,232.5 Z"/></g>
<g><path style="opacity:1" fill="#f6d655" d="M 197.5,284.5 C 203.176,284.334 208.843,284.501 214.5,285C 218.104,286.334 219.271,288.834 218,292.5C 214.149,300.511 209.316,307.844 203.5,314.5C 207.847,315.222 212.18,315.888 216.5,316.5C 217.769,318.695 217.769,320.861 216.5,323C 209.247,324.557 201.914,324.89 194.5,324C 190.356,321.28 189.523,317.78 192,313.5C 197.833,306.333 203.667,299.167 209.5,292C 204.184,292.263 198.851,292.263 193.5,292C 191.963,288.024 193.297,285.524 197.5,284.5 Z"/></g>
<g><path style="opacity:1" fill="#f5d555" d="M 237.5,286.5 C 239.527,286.338 241.527,286.505 243.5,287C 248.847,294.526 253.013,302.693 256,311.5C 256.667,314.167 256.667,316.833 256,319.5C 254.274,320.576 252.441,320.743 250.5,320C 249.373,318.247 248.373,316.413 247.5,314.5C 242.198,313.337 236.864,313.171 231.5,314C 229.833,316.333 228.167,318.667 226.5,321C 225.207,321.49 223.873,321.657 222.5,321.5C 223.979,310.858 227.479,300.858 233,291.5C 234.059,289.341 235.559,287.674 237.5,286.5 Z"/></g>
<g><path style="opacity:1" fill="#f3d354" d="M 302.5,285.5 C 304.993,285.329 306.826,286.329 308,288.5C 308.899,298.893 308.566,309.227 307,319.5C 303.181,322.072 299.348,321.905 295.5,319C 290.622,313.791 286.122,308.291 282,302.5C 281.453,309.179 280.787,315.845 280,322.5C 277.546,324.013 275.879,323.346 275,320.5C 274.333,310.833 274.333,301.167 275,291.5C 276.263,289.203 278.097,288.37 280.5,289C 286.629,296.114 292.629,303.281 298.5,310.5C 299.331,303.524 299.831,296.524 300,289.5C 300.662,288.016 301.496,286.683 302.5,285.5 Z"/></g>
<g><path style="opacity:1" fill="#efd053" d="M 263.5,287.5 C 265.722,287.178 267.556,287.845 269,289.5C 270.018,292.743 270.518,296.076 270.5,299.5C 270.055,305.838 269.555,312.171 269,318.5C 267.492,322.674 265.159,323.341 262,320.5C 260.452,311.562 260.119,302.562 261,293.5C 261.236,291.189 262.069,289.189 263.5,287.5 Z"/></g>
<g><path style="opacity:1" fill="#141107" d="M 238.5,295.5 C 239.376,295.369 240.043,295.702 240.5,296.5C 241.706,299.079 243.039,301.579 244.5,304C 241.854,304.497 239.187,304.664 236.5,304.5C 236.873,301.426 237.539,298.426 238.5,295.5 Z"/></g>
</svg>
